<?xml version="1.0" standalone="no"?><!DOCTYPE svg PUBLIC "-//W3C//DTD SVG 1.1//EN" "http://www.w3.org/Graphics/SVG/1.1/DTD/svg11.dtd"><svg t="1704788132145" class="icon" viewBox="0 0 1024 1024" version="1.1" xmlns="http://www.w3.org/2000/svg" p-id="1414" xmlns:xlink="http://www.w3.org/1999/xlink" width="200" height="200"><path d="M130.50311111 775.28177779c9.55733333 16.83911111 30.94755555 22.528 47.55911111 12.85688888L591.872 547.15733333l130.84444445 0 0 35.15733334c-42.66666667 31.97155555-70.20088889 83.05777778-70.2008889 140.40177778 0 96.93866667 78.62044446 175.55911111 175.55911112 175.5591111 96.82488889-0.11377778 175.44533333-78.62044446 175.44533333-175.67288888 0-96.93866667-78.62044446-175.55911111-175.55911111-175.55911112-12.06044444 0-23.77955555 1.25155555-35.15733334 3.52711112L792.80355555 473.31555555c11.37777778 2.27555555 23.09688889 3.52711111 35.15733334 3.52711112 96.93866667 0 175.55911111-78.50666668 175.55911111-175.44533334s-78.62044446-175.55911111-175.55911111-175.55911111c-96.93866667 0-175.55911111 78.62044446-175.55911111 175.55911111 0 57.45777778 27.53422222 108.43022222 70.20088889 140.40177778l0 35.04355556-130.84444445 0-413.80977778-241.09511112c-16.61155555-9.67111111-37.888-3.98222222-47.55911111 12.8568889s-3.86844445 38.22933333 12.74311112 47.90044444L512.91022221 512l-369.664 215.38133333c-16.72533333 9.67111111-22.41422222 31.17511111-12.7431111 47.90044446z m697.45777778-579.24266668c58.14044445 0 105.35822222 47.10400001 105.35822222 105.35822222 0 58.14044445-47.10400001 105.35822222-105.35822222 105.35822222-58.14044445 0-105.35822222-47.10400001-105.35822222-105.35822222 0-58.25422221 47.21777779-105.35822222 105.35822222-105.35822222z m0 421.31911111c58.14044445 0 105.35822222 47.10400001 105.35822222 105.35822223 0 58.14044445-47.10400001 105.35822222-105.35822222 105.35822222-58.14044445 0-105.35822222-47.10400001-105.35822222-105.35822222 0-58.25422221 47.21777779-105.35822222 105.35822222-105.35822223zM231.08266667 512c0-19.34222221-15.70133334-35.15733333-35.15733334-35.15733333-19.34222221 0-35.15733333 15.70133334-35.15733333 35.15733333 0 19.45599999 15.70133334 35.15733333 35.15733333 35.15733333 19.45599999 0 35.15733333-15.81511112 35.15733334-35.15733333z m-175.44533334 35.15733333c19.34222221 0 35.15733333-15.70133334 35.15733334-35.15733333 0-19.34222221-15.70133334-35.15733333-35.15733334-35.15733333-19.34222221 0-35.15733333 15.70133334-35.15733333 35.15733333 0 19.34222221 15.70133334 35.15733333 35.15733333 35.15733333zM371.59822222 512c0-19.34222221-15.70133334-35.15733333-35.15733333-35.15733333-19.34222221 0-35.15733333 15.70133334-35.15733334 35.15733333 0 19.45599999 15.70133334 35.15733333 35.15733334 35.15733333 19.45599999 0 35.15733333-15.81511112 35.15733333-35.15733333z" p-id="1415"></path></svg>