<?xml version="1.0" standalone="no"?><!DOCTYPE svg PUBLIC "-//W3C//DTD SVG 1.1//EN" "http://www.w3.org/Graphics/SVG/1.1/DTD/svg11.dtd"><svg t="1704788134951" class="icon" viewBox="0 0 1024 1024" version="1.1" xmlns="http://www.w3.org/2000/svg" p-id="1551" xmlns:xlink="http://www.w3.org/1999/xlink" width="200" height="200"><path d="M893.49688889 248.71822222c-9.55733333-16.83911111-30.94755555-22.528-47.55911111-12.85688889L432.128 476.84266667h-130.84444445v-35.15733334c42.66666667-31.97155555 70.20088889-83.05777778 70.2008889-140.40177778 0-96.93866667-78.62044445-175.55911111-175.55911112-175.5591111-96.82488889 0.11377778-175.44533333 78.62044445-175.44533333 175.67288888 0 96.93866667 78.62044445 175.55911111 175.55911111 175.55911112 12.06044445 0 23.77955555-1.25155555 35.15733334-3.52711112V550.68444445c-11.37777778-2.27555555-23.09688889-3.52711111-35.15733334-3.52711112-96.93866667 0-175.55911111 78.50666667-175.55911111 175.44533334s78.62044445 175.55911111 175.55911111 175.55911111c96.93866667 0 175.55911111-78.62044445 175.55911111-175.55911111 0-57.45777778-27.53422222-108.43022222-70.20088889-140.40177778v-35.04355556h130.84444445l413.80977777 241.09511112c16.61155555 9.67111111 37.888 3.98222222 47.55911112-12.8568889s3.86844445-38.22933333-12.74311112-47.90044444L511.08977778 512l369.664-215.38133333c16.72533333-9.67111111 22.41422222-31.17511111 12.74311111-47.90044445z m-697.45777778 579.24266667c-58.14044445 0-105.35822222-47.104-105.35822222-105.35822222 0-58.14044445 47.104-105.35822222 105.35822222-105.35822222 58.14044445 0 105.35822222 47.104 105.35822222 105.35822222 0 58.25422222-47.21777778 105.35822222-105.35822222 105.35822222z m0-421.31911111c-58.14044445 0-105.35822222-47.104-105.35822222-105.35822223 0-58.14044445 47.104-105.35822222 105.35822222-105.35822222 58.14044445 0 105.35822222 47.104 105.35822222 105.35822222 0 58.25422222-47.21777778 105.35822222-105.35822222 105.35822223zM792.91733333 512c0 19.34222222 15.70133333 35.15733333 35.15733334 35.15733333 19.34222222 0 35.15733333-15.70133333 35.15733333-35.15733333 0-19.456-15.70133333-35.15733333-35.15733333-35.15733333-19.456 0-35.15733333 15.81511111-35.15733334 35.15733333z m175.44533334-35.15733333c-19.34222222 0-35.15733333 15.70133333-35.15733334 35.15733333 0 19.34222222 15.70133333 35.15733333 35.15733334 35.15733333 19.34222222 0 35.15733333-15.70133333 35.15733333-35.15733333 0-19.34222222-15.70133333-35.15733333-35.15733333-35.15733333zM652.40177778 512c0 19.34222222 15.70133333 35.15733333 35.15733333 35.15733333 19.34222222 0 35.15733333-15.70133333 35.15733334-35.15733333 0-19.456-15.70133333-35.15733333-35.15733334-35.15733333-19.456 0-35.15733333 15.81511111-35.15733333 35.15733333z" p-id="1552"></path></svg>