<?xml version="1.0" standalone="no"?><!DOCTYPE svg PUBLIC "-//W3C//DTD SVG 1.1//EN" "http://www.w3.org/Graphics/SVG/1.1/DTD/svg11.dtd"><svg t="1704786959638" class="icon" viewBox="0 0 1024 1024" version="1.1" xmlns="http://www.w3.org/2000/svg" p-id="1247" xmlns:xlink="http://www.w3.org/1999/xlink" width="200" height="200"><path d="M967.11111147 556.71466667V785.06666667c0 69.12-56.0355552 125.1555552-125.15555627 125.1555552H182.0444448c-69.12 0-125.1555552-56.0355552-125.15555627-125.1555552V238.93333333c0-69.12 56.0355552-125.1555552 125.15555627-125.1555552h659.9111104c69.12 0 125.1555552 56.0355552 125.15555627 125.1555552v317.78133334z m-68.26666667-79.59893334V238.93333333a56.88888853 56.88888853 0 0 0-56.8888896-56.88888853H182.0444448a56.88888853 56.88888853 0 0 0-56.8888896 56.88888853v367.44533334A309.4300448 309.4300448 0 0 1 170.66666667 603.02222187a306.00533333 306.00533333 0 0 1 195.51573333 70.23502293C421.36462187 529.47626667 559.9004448 432.3555552 716.8 432.3555552c70.08711147 0 135.46382187 17.8972448 182.0444448 44.76017813z m0 87.72266667c-5.68888853-8.87466667-22.53937813-23.09688853-46.55786667-35.11182187C815.75253333 511.45386667 769.11502187 500.62222187 716.8 500.62222187c-129.88871147 0-244.4060448 81.35111147-288.4608 201.2728896-2.91271147 7.94168853-7.89617813 21.67466667-14.9276448 41.15342186-8.192 22.72142187-36.75022187 29.9804448-54.79537707 13.9264-17.5331552-15.61031147-30.45831147-26.73777813-38.54791146-33.22311146A237.7500448 237.7500448 0 0 0 170.66666667 671.28888853c-15.42826667 0-30.6403552 1.4563552-45.51111147 4.32355627V785.06666667a56.88888853 56.88888853 0 0 0 56.8888896 56.88888853h659.9111104a56.88888853 56.88888853 0 0 0 56.8888896-56.88888853V564.82702187zM307.2 477.86666667a102.4 102.4 0 1 1 0-204.8 102.4 102.4 0 0 1 0 204.8z m0-68.26666667a34.13333333 34.13333333 0 1 0 0-68.26666667 34.13333333 34.13333333 0 0 0 0 68.26666667z" p-id="1248"></path></svg>