<?xml version="1.0" standalone="no"?><!DOCTYPE svg PUBLIC "-//W3C//DTD SVG 1.1//EN" "http://www.w3.org/Graphics/SVG/1.1/DTD/svg11.dtd"><svg t="1705387463674" class="icon" viewBox="0 0 1024 1024" version="1.1" xmlns="http://www.w3.org/2000/svg" p-id="1307" xmlns:xlink="http://www.w3.org/1999/xlink" width="200" height="200"><path d="M505.6 919.68a35.2 35.09333333 0 1 0 70.4 0 35.2 35.09333333 0 1 0-70.4 0Z" p-id="1308"></path><path d="M887.46666667 380.48v-4.69333333c0-75.41333333-61.12-136.53333333-136.53333334-136.53333334H511.78666667l-88-118.29333333c-7.89333333-13.76-19.2-17.28-29.12-17.06666667l-0.10666667-0.10666666H170.77333333c-75.41333333 0-136.53333333 61.12-136.53333333 136.53333333v578.24c0 75.41333333 61.12 136.53333333 136.53333333 136.53333333H400v-0.42666666c19.41333333 0 35.2-15.68 35.2-35.09333334s-15.78666667-35.09333333-35.2-35.09333333c-1.06666667 0-2.24 0.10666667-3.30666667 0.10666667h-193.06666666c-37.65333333 0-68.26666667-30.61333333-68.26666667-68.26666667 0-5.86666667 0.74666667-11.62666667 2.13333333-17.06666667L215.46666667 498.02666667l0.21333333-0.10666667c7.14666667-29.97333333 34.02666667-52.26666667 66.24-52.37333333l0.21333333-0.10666667h567.68c1.38666667-0.10666667 2.66666667-0.10666667 4.05333334-0.10666667 37.65333333 0 68.26666667 30.61333333 68.26666666 68.26666667 0 7.14666667-1.17333333 14.18666667-3.2 20.69333333v0.10666667L841.6 832.85333333c-0.10666667 0.64-0.32 1.17333333-0.42666667 1.81333334l-1.6 6.18666666-0.53333333 0.42666667c-1.6 4.16-3.62666667 8-5.86666667 11.73333333h-1.38666666c-2.77333333 5.01333333-6.18666667 9.70666667-10.13333334 13.76-12.16 11.30666667-28.48 18.24-46.29333333 18.24-1.38666667 0-2.77333333 0-4.05333333-0.10666666h-86.18666667c-1.06666667-0.10666667-2.24-0.10666667-3.30666667-0.10666667-19.41333333 0-35.2 15.68-35.2 35.09333333s15.78666667 35.09333333 35.2 35.09333334v0.21333333H779.73333333l0.53333334-0.42666667c63.04-0.21333333 115.94666667-43.09333333 131.41333333-101.33333333l0.21333333-0.21333333 72.32-304.53333334c3.09333333-11.52 4.8-23.57333333 4.8-36.05333333-0.10666667-63.46666667-43.2-116.8-101.54666666-132.16z m-609.6-5.22666667c-66.13333333 0-121.28 47.14666667-133.86666667 109.54666667l-0.53333333 0.42666667-40.53333334 170.98666666V240c0-37.65333333 30.61333333-68.26666667 68.26666667-68.26666667H374.4l88.21333333 118.72c7.04 12.16 20.48 18.34666667 33.6 16.85333334h254.4c37.54666667 0 68.05333333 30.4 68.26666667 67.94666666H277.86666667z" p-id="1309"></path></svg>