<?xml version="1.0" standalone="no"?><!DOCTYPE svg PUBLIC "-//W3C//DTD SVG 1.1//EN" "http://www.w3.org/Graphics/SVG/1.1/DTD/svg11.dtd"><svg t="1704788145400" class="icon" viewBox="0 0 1024 1024" version="1.1" xmlns="http://www.w3.org/2000/svg" p-id="1277" xmlns:xlink="http://www.w3.org/1999/xlink" width="200" height="200"><path d="M635.62666667 593.49333333l-178.98666667-104.32c-4.58666667-5.33333333-11.41333333-8.64-18.88-8.64-13.97333333 0-25.17333333 11.41333333-25.17333333 25.38666667v1.38666667l-0.32 0.21333333 0.42666666 213.12c-0.10666667 0.85333333-0.10666667 1.70666667-0.10666666 2.66666667 0 14.08 11.30666667 25.38666667 25.17333333 25.38666666 4.69333333 0 9.06666667-1.28 12.90666667-3.52l183.14666666-106.66666666c8.53333333-3.94666667 14.50666667-12.69333333 14.50666667-22.93333334 0-9.38666667-5.12-17.70666667-12.69333333-22.08z" p-id="1278"></path><path d="M578.66666667 955.30666667a34.34666667 34.24 0 1 0 68.69333333 0 34.34666667 34.24 0 1 0-68.69333333 0Z" p-id="1279"></path><path d="M853.12 34.13333333H170.77333333c-75.09333333 0-136.53333333 61.44-136.53333333 136.53333334v682.34666666c0 75.09333333 61.44 136.53333333 136.53333333 136.53333334h304.74666667c18.98666667 0 34.24-15.36 34.24-34.24 0-18.88-15.36-34.24-34.34666667-34.24h-0.64l-304.10666666 0.21333333c-37.54666667 0-68.26666667-31.57333333-68.26666667-69.12V306.88c0.64 0 1.38666667 0.10666667 2.02666667 0.10666667H921.81333333v545.17333333c0 37.54666667-30.72 69.12-68.26666666 69.12h-98.56c-1.28-0.10666667-2.56-0.21333333-3.84-0.21333333-18.98666667 0-34.34666667 15.36-34.34666667 34.24 0 18.88 15.36 34.24 34.34666667 34.24h102.08c75.09333333 0 136.53333333-61.44 136.53333333-136.53333334V170.66666667c-0.10666667-75.09333333-61.54666667-136.53333333-136.64-136.53333334zM665.49333333 238.93333333l-78.93333333-136.85333333h96.96l78.93333333 136.85333333h-96.96z m-178.66666666 0l-78.93333334-136.85333333h96.85333334l78.93333333 136.85333333h-96.85333333z m-184.32 0l-79.04-136.85333333h102.50666666l78.93333334 136.85333333h-102.4z m-200.10666667 0.10666667v-68.69333333c0-28.37333333 17.49333333-52.8 42.24-63.04L220.58666667 238.93333333H104.42666667c-0.64 0-1.38666667 0-2.02666667 0.10666667z m819.30666667-0.10666667h-77.33333334l-78.93333333-136.85333333h88.10666667c37.54666667 0 68.26666667 30.72 68.26666666 68.26666667V238.93333333h-0.10666666z" p-id="1280"></path></svg>