<?xml version="1.0" standalone="no"?><!DOCTYPE svg PUBLIC "-//W3C//DTD SVG 1.1//EN" "http://www.w3.org/Graphics/SVG/1.1/DTD/svg11.dtd"><svg t="1704786951396" class="icon" viewBox="0 0 1024 1024" version="1.1" xmlns="http://www.w3.org/2000/svg" p-id="1384" xmlns:xlink="http://www.w3.org/1999/xlink" width="200" height="200"><path d="M793.25 62a37.50000029 37.50000029 0 0 1 37.50000029 37.50000029v65.62499942h18.74999971a112.5 112.5 0 0 1 112.5 112.5V737a112.5 112.5 0 0 1-112.5 112.5h-18.74999971v74.99999971a37.50000029 37.50000029 0 0 1-75.00000058 0v-74.99999971H258.875v74.99999971a37.50000029 37.50000029 0 0 1-74.99999971 0v-74.99999971H174.5A112.5 112.5 0 0 1 62 737V277.62499971a112.5 112.5 0 0 1 112.5-112.5h9.37500029V99.50000029a37.50000029 37.50000029 0 0 1 74.99999971 0v65.62499942H755.74999971V99.50000029a37.50000029 37.50000029 0 0 1 37.50000029-37.50000029zM183.87500029 240.12500029H174.5a37.50000029 37.50000029 0 0 0-37.50000029 37.49999942V737a37.50000029 37.50000029 0 0 0 37.50000029 37.50000029h9.37500029V737a37.50000029 37.50000029 0 0 1 74.99999971 0v37.50000029H755.74999971V737a37.50000029 37.50000029 0 0 1 75.00000058 0v37.50000029h18.74999971A37.50000029 37.50000029 0 0 0 887.00000029 737V277.62499971a37.50000029 37.50000029 0 0 0-37.50000029-37.49999942h-18.74999971V287a37.50000029 37.50000029 0 0 1-75.00000058 0V240.12500029H258.875V287a37.50000029 37.50000029 0 0 1-74.99999971 0V240.12500029zM418.24999971 324.50000029c8.75000039 0 17.34999961 2.025 25.1499999 5.94999932l239.32500029 119.65000078a56.25 56.25 0 0 1 0 100.62499922l-239.32500029 119.65000078A56.25 56.25 0 0 1 361.99999971 620.07499971V380.75000029a56.25 56.25 0 0 1 56.25-56.25z m-196.875 56.25a37.50000029 37.50000029 0 0 1 37.50000029 37.49999942v187.50000058a37.50000029 37.50000029 0 0 1-74.99999971 0v-187.50000058a37.50000029 37.50000029 0 0 1 37.49999942-37.49999942z m571.87500029 0a37.50000029 37.50000029 0 0 1 37.50000029 37.49999942v187.50000058a37.50000029 37.50000029 0 0 1-75.00000058 0v-187.50000058a37.50000029 37.50000029 0 0 1 37.50000029-37.49999942zM437.00000029 418.24999971V586.99999971l184.12499971-84.375L437.00000029 418.24999971z" p-id="1385"></path></svg>