<?xml version="1.0" standalone="no"?><!DOCTYPE svg PUBLIC "-//W3C//DTD SVG 1.1//EN" "http://www.w3.org/Graphics/SVG/1.1/DTD/svg11.dtd"><svg t="1704788154658" class="icon" viewBox="0 0 1024 1024" version="1.1" xmlns="http://www.w3.org/2000/svg" p-id="1707" xmlns:xlink="http://www.w3.org/1999/xlink" width="200" height="200"><path d="M974.62044445 486.17244445L664.576 176.128c-13.99466667-13.99466667-36.97777778-13.99466667-50.97244445 0l-0.79644444 0.79644445c-13.99466667 13.99466667-13.99466667 36.864 0 50.85866666l248.832 248.832H222.54933333c-19.68355555 0-35.84 16.15644445-35.84 35.84s16.15644445 35.84 35.84 35.84h637.26933334L613.48977778 794.73777778c-14.22222222 14.22222222-14.22222222 37.43288889 0 51.65511111s37.43288889 14.22222222 51.65511111 0l308.45155556-308.45155556s0.11377778-0.11377778 0.22755555-0.11377778l0.79644445-0.79644444c13.99466667-13.99466667 13.99466667-36.864 0-50.85866666z" p-id="1708"></path><path d="M40.50488889 512.68266667a36.18133333 36.06755555 0 1 0 72.36266666 0 36.18133333 36.06755555 0 1 0-72.36266666 0Z" p-id="1709"></path></svg>