<?xml version="1.0" standalone="no"?><!DOCTYPE svg PUBLIC "-//W3C//DTD SVG 1.1//EN" "http://www.w3.org/Graphics/SVG/1.1/DTD/svg11.dtd"><svg t="1704788158034" class="icon" viewBox="0 0 1024 1024" version="1.1" xmlns="http://www.w3.org/2000/svg" p-id="1849" xmlns:xlink="http://www.w3.org/1999/xlink" width="200" height="200"><path d="M937.38666667 289.70666667c-5.76-11.2-17.38666667-18.98666667-30.82666667-18.98666667-18.98666667 0-34.34666667 15.36-34.34666667 34.24 0 6.4 1.81333333 12.48 4.90666667 17.6l-0.10666667 0.10666667c28.69333333 55.89333333 44.90666667 119.25333333 44.90666667 186.34666666 0 225.70666667-183.04 408.74666667-408.74666667 408.74666667S104.32 734.72 104.32 509.01333333 287.36 100.37333333 513.06666667 100.37333333c66.66666667 0 129.6 16 185.17333333 44.26666667l0.21333333-0.42666667c4.90666667 2.77333333 10.66666667 4.37333333 16.74666667 4.37333334 18.98666667 0 34.34666667-15.36 34.34666667-34.24 0-13.97333333-8.42666667-26.02666667-20.58666667-31.36C664.10666667 50.02666667 590.82666667 31.46666667 513.06666667 31.46666667 249.28 31.46666667 35.52 245.33333333 35.52 509.01333333S249.28 986.56 513.06666667 986.56s477.54666667-213.76 477.54666666-477.54666667c0-79.04-19.2-153.6-53.22666666-219.30666666z" p-id="1850"></path><path d="M376.96 341.54666667V682.66666667c0 18.66666667 15.25333333 34.02666667 34.02666667 34.02666666 18.77333333 0 34.13333333-15.36 34.02666666-34.02666666V341.54666667c0-18.66666667-15.25333333-34.02666667-34.02666666-34.02666667-18.66666667 0-34.02666667 15.25333333-34.02666667 34.02666667zM583.36 341.54666667V682.66666667c0 18.66666667 15.25333333 34.02666667 34.02666667 34.02666666 18.66666667 0 34.02666667-15.36 34.02666666-34.02666666V341.54666667c0-18.66666667-15.25333333-34.02666667-34.02666666-34.02666667-18.66666667 0-34.02666667 15.25333333-34.02666667 34.02666667z" p-id="1851"></path><path d="M790.08 198.08a34.34666667 34.24 0 1 0 68.69333333 0 34.34666667 34.24 0 1 0-68.69333333 0Z" p-id="1852"></path></svg>