<?xml version="1.0" standalone="no"?><!DOCTYPE svg PUBLIC "-//W3C//DTD SVG 1.1//EN" "http://www.w3.org/Graphics/SVG/1.1/DTD/svg11.dtd"><svg t="1704788151215" class="icon" viewBox="0 0 1024 1024" version="1.1" xmlns="http://www.w3.org/2000/svg" p-id="1564" xmlns:xlink="http://www.w3.org/1999/xlink" width="200" height="200"><path d="M790.08 198.08a34.34666667 34.24 0 1 0 68.69333333 0 34.34666667 34.24 0 1 0-68.69333333 0Z" p-id="1565"></path><path d="M409.38666667 691.09333333c6.29333333 0 12.26666667-1.70666667 17.28-4.8l246.50666666-143.57333333c11.62666667-5.54666667 19.73333333-17.38666667 19.73333334-31.14666667 0-12.69333333-6.82666667-23.78666667-17.06666667-29.65333333L434.88 341.54666667c-6.18666667-7.14666667-15.36-11.62666667-25.49333333-11.62666667-18.77333333 0-33.92 15.36-33.92 34.24 0 0.64 0 1.28 0.10666666 1.92l-0.42666666 0.21333333 0.53333333 286.93333334c-0.10666667 1.17333333-0.21333333 2.34666667-0.21333333 3.62666666 0 18.88 15.25333333 34.24 33.92 34.24z" p-id="1566"></path><path d="M936.32 292.90666667c-5.76-11.2-17.38666667-18.98666667-30.82666667-18.98666667-18.98666667 0-34.34666667 15.36-34.34666666 34.24 0 6.4 1.81333333 12.48 4.90666666 17.6l-0.10666666 0.10666667c28.69333333 55.89333333 44.90666667 119.25333333 44.90666666 186.34666666 0 225.70666667-183.04 408.74666667-408.74666666 408.74666667S103.25333333 737.92 103.25333333 512.21333333 286.29333333 103.57333333 512 103.57333333c66.66666667 0 129.6 16 185.17333333 44.26666667l0.21333334-0.42666667c4.90666667 2.77333333 10.66666667 4.37333333 16.74666666 4.37333334 18.98666667 0 34.34666667-15.36 34.34666667-34.24 0-13.97333333-8.42666667-26.02666667-20.58666667-31.36C663.04 53.22666667 589.76 34.66666667 512 34.66666667 248.21333333 34.66666667 34.45333333 248.53333333 34.45333333 512.21333333S248.21333333 989.76 512 989.76s477.54666667-213.76 477.54666667-477.54666667c0-79.04-19.2-153.6-53.22666667-219.30666666z" p-id="1567"></path></svg>