<?xml version="1.0" standalone="no"?><!DOCTYPE svg PUBLIC "-//W3C//DTD SVG 1.1//EN" "http://www.w3.org/Graphics/SVG/1.1/DTD/svg11.dtd"><svg t="1704788160633" class="icon" viewBox="0 0 1024 1024" version="1.1" xmlns="http://www.w3.org/2000/svg" p-id="1992" xmlns:xlink="http://www.w3.org/1999/xlink" width="200" height="200"><path d="M802.92977778 476.61511111H165.09155555l247.69422223-247.69422222c13.99466667-13.99466667 13.99466667-36.864 0-50.85866667l-0.79644445-0.79644444c-13.99466667-13.99466667-36.864-13.99466667-50.85866666 0.11377777L51.2 487.31022222c-13.99466667 13.99466667-13.99466667 36.864 0 50.85866667l0.68266667 0.79644444c0.11377778 0 0.22755555 0.11377778 0.22755555 0.11377778l308.45155556 308.45155556c14.22222222 14.22222222 37.43288889 14.22222222 51.65511111 0s14.22222222-37.43288889 0-51.65511112L164.63644445 548.29511111h638.29333333c19.68355555 0 35.84-16.15644445 35.84-35.84s-16.15644445-35.84-35.84-35.84z" p-id="1993"></path><path d="M912.61155555 512.68266667a36.18133333 36.06755555 0 1 0 72.36266667 0 36.18133333 36.06755555 0 1 0-72.36266667 0Z" p-id="1994"></path></svg>