<?xml version="1.0" standalone="no"?><!DOCTYPE svg PUBLIC "-//W3C//DTD SVG 1.1//EN" "http://www.w3.org/Graphics/SVG/1.1/DTD/svg11.dtd"><svg t="1705294752488" class="icon" viewBox="0 0 1024 1024" version="1.1" xmlns="http://www.w3.org/2000/svg" p-id="2141" xmlns:xlink="http://www.w3.org/1999/xlink" width="200" height="200"><path d="M768 64a192 192 0 0 1 192 192v192h-64V256a128 128 0 0 0-96-123.968V415.36a128 128 0 0 1-128 128h-320a128 128 0 0 1-128-128V132.032c-52.224 13.44-91.52 59.008-95.68 114.432L128 256v512a128 128 0 0 0 118.4 127.68L256 896h384v64H256a192 192 0 0 1-192-192V256a192 192 0 0 1 192-192h512z m114.176 509.888l4.48 3.712 90.496 90.496a96 96 0 0 1 6.208 128.96l-6.208 6.848-90.496 90.496a32 32 0 0 1-48.96-40.832l3.648-4.48L922.432 768H608a32 32 0 0 1-5.76-63.488L608 704h314.496l-81.152-81.152a32 32 0 0 1 40.832-48.96zM736 141.312h-448v273.92a64 64 0 0 0 56.512 63.616l7.488 0.448h320a64 64 0 0 0 63.552-56.576l0.448-7.424V141.312zM640 212.48a32 32 0 0 1 31.488 26.24l0.512 5.76v128a32 32 0 0 1-63.488 5.76L608 372.48v-128a32 32 0 0 1 32-32z" p-id="2142"></path></svg>